<svg width="398" height="218" viewBox="0 0 398 218" fill="none" xmlns="http://www.w3.org/2000/svg">
<path d="M0 24.9409C0 11.1646 11.168 -0.00341797 24.9443 -0.00341797H373.056C386.832 -0.00341797 398 11.1645 398 24.9409V192.243C398 206.02 386.832 217.188 373.056 217.188H24.9443C11.168 217.188 0 206.02 0 192.243V24.9409Z" fill="#262626" fill-opacity="0.3"/>
<path d="M0.5 24.9409C0.5 11.4407 11.4441 0.496582 24.9443 0.496582H373.056C386.556 0.496582 397.5 11.4407 397.5 24.9409V192.243C397.5 205.744 386.556 216.688 373.056 216.688H24.9443C11.4441 216.688 0.5 205.744 0.5 192.243V24.9409Z" stroke="white" stroke-opacity="0.1"/>
<path opacity="0.6" d="M22.9539 25.7247H26.087C28.8519 25.7247 30.4862 27.4495 30.4862 30.3823C30.4862 33.3216 28.8583 35.0464 26.087 35.0464H22.9539V25.7247ZM24.1167 26.7712V33.9999H26.0095C28.1219 33.9999 29.2976 32.7079 29.2976 30.3952C29.2976 28.0632 28.1283 26.7712 26.0095 26.7712H24.1167ZM37.2756 28.3281V35.0464H36.2097V33.9547H36.1839C35.7834 34.7299 35.0857 35.1627 34.0521 35.1627C32.5857 35.1627 31.7265 34.2131 31.7265 32.6885V28.3281H32.8505V32.4883C32.8505 33.58 33.3609 34.1678 34.4009 34.1678C35.4927 34.1678 36.1516 33.4185 36.1516 32.2751V28.3281H37.2756ZM42.0753 35.1627C41.0934 35.1627 40.3247 34.6846 39.8919 33.9094H39.866V35.0464H38.7937V25.7247H39.9177V29.4521H39.9435C40.3634 28.6834 41.1451 28.2118 42.0947 28.2118C43.7872 28.2118 44.9306 29.5813 44.9306 31.6872C44.9306 33.7996 43.7937 35.1627 42.0753 35.1627ZM41.8557 29.2002C40.7187 29.2002 39.9112 30.195 39.9112 31.6872C39.9112 33.1859 40.7187 34.1743 41.8557 34.1743C43.0443 34.1743 43.7807 33.2247 43.7807 31.6872C43.7807 30.1627 43.0443 29.2002 41.8557 29.2002ZM48.2898 34.2066C49.3492 34.2066 50.1631 33.4637 50.1631 32.4947V31.9456L48.3673 32.0554C47.4629 32.1136 46.9461 32.5141 46.9461 33.1472C46.9461 33.7867 47.4823 34.2066 48.2898 34.2066ZM48.0378 35.1627C46.7006 35.1627 45.8027 34.3552 45.8027 33.1472C45.8027 31.9973 46.6877 31.2738 48.2381 31.1834L50.1631 31.0735V30.5115C50.1631 29.6911 49.6205 29.2002 48.6903 29.2002C47.8246 29.2002 47.282 29.6071 47.1399 30.266H46.0546C46.1321 29.1033 47.127 28.2118 48.7161 28.2118C50.2923 28.2118 51.2872 29.0645 51.2872 30.4017V35.0464H50.2213V33.8901H50.1954C49.7949 34.6588 48.9422 35.1627 48.0378 35.1627ZM52.7729 35.0464V28.3281H53.897V35.0464H52.7729ZM53.335 27.133C52.9474 27.133 52.6308 26.8164 52.6308 26.4289C52.6308 26.0348 52.9474 25.7247 53.335 25.7247C53.729 25.7247 54.0391 26.0348 54.0391 26.4289C54.0391 26.8164 53.729 27.133 53.335 27.133Z" fill="white"/>
<path d="M159.375 33.9999V35.0464H153.599V25.7247H159.375V26.7712H154.762V29.7622H159.135V30.7958H154.762V33.9999H159.375ZM160.738 35.0464V28.3281H161.797V29.4004H161.823C162.139 28.6898 162.824 28.2118 163.728 28.2118C164.646 28.2118 165.324 28.6769 165.615 29.4909H165.641C166.015 28.6898 166.803 28.2118 167.747 28.2118C169.077 28.2118 169.936 29.0774 169.936 30.4082V35.0464H168.812V30.6666C168.812 29.7493 168.302 29.2066 167.417 29.2066C166.526 29.2066 165.899 29.8655 165.899 30.7764V35.0464H164.775V30.5438C164.775 29.7363 164.232 29.2066 163.399 29.2066C162.508 29.2066 161.862 29.9043 161.862 30.8345V35.0464H160.738ZM171.429 35.0464V28.3281H172.553V35.0464H171.429ZM171.991 27.133C171.603 27.133 171.287 26.8164 171.287 26.4289C171.287 26.0348 171.603 25.7247 171.991 25.7247C172.385 25.7247 172.695 26.0348 172.695 26.4289C172.695 26.8164 172.385 27.133 171.991 27.133ZM174.071 35.0464V28.3281H175.13V29.4263H175.156C175.376 28.6834 175.996 28.2118 176.784 28.2118C176.978 28.2118 177.146 28.2441 177.236 28.257V29.3487C177.146 29.3164 176.907 29.2841 176.635 29.2841C175.763 29.2841 175.195 29.9108 175.195 30.8604V35.0464H174.071ZM180.24 34.2066C181.299 34.2066 182.113 33.4637 182.113 32.4947V31.9456L180.318 32.0554C179.413 32.1136 178.896 32.5141 178.896 33.1472C178.896 33.7867 179.433 34.2066 180.24 34.2066ZM179.988 35.1627C178.651 35.1627 177.753 34.3552 177.753 33.1472C177.753 31.9973 178.638 31.2738 180.188 31.1834L182.113 31.0735V30.5115C182.113 29.6911 181.571 29.2002 180.641 29.2002C179.775 29.2002 179.232 29.6071 179.09 30.266H178.005C178.082 29.1033 179.077 28.2118 180.666 28.2118C182.243 28.2118 183.237 29.0645 183.237 30.4017V35.0464H182.172V33.8901H182.146C181.745 34.6588 180.892 35.1627 179.988 35.1627ZM185.027 26.7066H186.151V28.3281H187.456V29.2518H186.151V33.2441C186.151 33.8578 186.409 34.1355 186.984 34.1355C187.113 34.1355 187.372 34.1162 187.449 34.1032V35.0464C187.314 35.0787 187.004 35.0981 186.739 35.0981C185.505 35.0981 185.027 34.5942 185.027 33.3022V29.2518H184.026V28.3281H185.027V26.7066ZM191.157 29.1872C190.104 29.1872 189.368 29.9947 189.297 31.1123H192.947C192.921 29.9883 192.217 29.1872 191.157 29.1872ZM192.921 33.1213H194.026C193.832 34.297 192.695 35.1627 191.228 35.1627C189.303 35.1627 188.134 33.8255 188.134 31.7131C188.134 29.6265 189.323 28.2118 191.177 28.2118C192.992 28.2118 194.109 29.5296 194.109 31.5645V31.9908H189.29V32.0554C189.29 33.341 190.046 34.1872 191.254 34.1872C192.107 34.1872 192.734 33.7544 192.921 33.1213ZM195.13 30.1821C195.13 29.0322 196.144 28.2118 197.598 28.2118C199.071 28.2118 200.053 29.0774 200.098 30.266H199.025C198.942 29.5619 198.425 29.1291 197.598 29.1291C196.777 29.1291 196.235 29.5361 196.235 30.1239C196.235 30.589 196.577 30.9056 197.327 31.0865L198.392 31.3449C199.749 31.6743 200.24 32.204 200.24 33.1665C200.24 34.3358 199.135 35.1627 197.637 35.1627C196.06 35.1627 195.078 34.3681 194.949 33.1084H196.073C196.209 33.8771 196.726 34.2454 197.637 34.2454C198.547 34.2454 199.109 33.8578 199.109 33.2505C199.109 32.766 198.845 32.4883 198.076 32.3009L197.01 32.0425C195.744 31.7389 195.13 31.1511 195.13 30.1821ZM210.356 35.0464L209.42 32.3784H205.712L204.775 35.0464H203.554L206.991 25.7247H208.14L211.577 35.0464H210.356ZM207.546 27.1394L206.054 31.3901H209.077L207.585 27.1394H207.546ZM212.527 35.0464V28.3281H213.651V35.0464H212.527ZM213.089 27.133C212.701 27.133 212.385 26.8164 212.385 26.4289C212.385 26.0348 212.701 25.7247 213.089 25.7247C213.483 25.7247 213.793 26.0348 213.793 26.4289C213.793 26.8164 213.483 27.133 213.089 27.133ZM215.169 35.0464V28.3281H216.228V29.4263H216.254C216.474 28.6834 217.094 28.2118 217.882 28.2118C218.076 28.2118 218.244 28.2441 218.334 28.257V29.3487C218.244 29.3164 218.005 29.2841 217.733 29.2841C216.861 29.2841 216.293 29.9108 216.293 30.8604V35.0464H215.169ZM219.31 35.0464V25.7247H220.434V35.0464H219.31ZM222.01 35.0464V28.3281H223.134V35.0464H222.01ZM222.572 27.133C222.184 27.133 221.868 26.8164 221.868 26.4289C221.868 26.0348 222.184 25.7247 222.572 25.7247C222.966 25.7247 223.276 26.0348 223.276 26.4289C223.276 26.8164 222.966 27.133 222.572 27.133ZM224.652 35.0464V28.3281H225.711V29.4004H225.737C226.112 28.6769 226.829 28.2118 227.869 28.2118C229.342 28.2118 230.195 29.1614 230.195 30.6859V35.0464H229.071V30.8862C229.071 29.8009 228.56 29.2066 227.527 29.2066C226.467 29.2066 225.776 29.956 225.776 31.0929V35.0464H224.652ZM234.323 29.1872C233.27 29.1872 232.533 29.9947 232.462 31.1123H236.112C236.086 29.9883 235.382 29.1872 234.323 29.1872ZM236.086 33.1213H237.191C236.997 34.297 235.86 35.1627 234.394 35.1627C232.469 35.1627 231.299 33.8255 231.299 31.7131C231.299 29.6265 232.488 28.2118 234.342 28.2118C236.157 28.2118 237.275 29.5296 237.275 31.5645V31.9908H232.456V32.0554C232.456 33.341 233.211 34.1872 234.419 34.1872C235.272 34.1872 235.899 33.7544 236.086 33.1213ZM238.295 30.1821C238.295 29.0322 239.31 28.2118 240.763 28.2118C242.236 28.2118 243.218 29.0774 243.263 30.266H242.191C242.107 29.5619 241.59 29.1291 240.763 29.1291C239.943 29.1291 239.4 29.5361 239.4 30.1239C239.4 30.589 239.742 30.9056 240.492 31.0865L241.558 31.3449C242.914 31.6743 243.405 32.204 243.405 33.1665C243.405 34.3358 242.3 35.1627 240.802 35.1627C239.226 35.1627 238.244 34.3681 238.114 33.1084H239.238C239.374 33.8771 239.891 34.2454 240.802 34.2454C241.713 34.2454 242.275 33.8578 242.275 33.2505C242.275 32.766 242.01 32.4883 241.241 32.3009L240.175 32.0425C238.909 31.7389 238.295 31.1511 238.295 30.1821Z" fill="white"/>
<path opacity="0.6" d="M26.0816 100.221C28.2834 100.221 29.6615 101.772 29.6615 104.237C29.6615 106.703 28.2834 108.248 26.0816 108.248C23.8799 108.248 22.5018 106.703 22.5018 104.237C22.5018 101.772 23.8799 100.221 26.0816 100.221ZM26.0816 101.115C24.4936 101.115 23.4977 102.321 23.4977 104.237C23.4977 106.148 24.4936 107.354 26.0816 107.354C27.6697 107.354 28.6656 106.148 28.6656 104.237C28.6656 102.321 27.6697 101.115 26.0816 101.115ZM35.3731 104.356H34.458C34.3234 103.747 33.8497 103.247 33.026 103.247C32.0571 103.247 31.4003 104.049 31.4003 105.319C31.4003 106.622 32.0678 107.392 33.0368 107.392C33.8012 107.392 34.3019 106.988 34.4634 106.315H35.3839C35.2386 107.429 34.3019 108.215 33.0314 108.215C31.481 108.215 30.4475 107.123 30.4475 105.319C30.4475 103.553 31.4757 102.423 33.0207 102.423C34.4203 102.423 35.2547 103.349 35.3731 104.356ZM36.5467 101.169H37.4834V102.52H38.5708V103.29H37.4834V106.616C37.4834 107.128 37.6987 107.359 38.1778 107.359C38.2855 107.359 38.5008 107.343 38.5654 107.332V108.118C38.4524 108.145 38.194 108.161 37.9733 108.161C36.9451 108.161 36.5467 107.742 36.5467 106.665V103.29H35.7123V102.52H36.5467V101.169ZM45.5475 108.118V106.503H41.6447V105.626C42.3068 104.399 43.2166 102.983 45.0523 100.35H46.4842V105.653H47.5824V106.503H46.4842V108.118H45.5475ZM42.6029 105.631V105.653H45.5475V101.158H45.5314C44.0617 103.257 43.2166 104.555 42.6029 105.631ZM25.3495 120.248C23.7076 120.248 22.5341 119.316 22.5341 118.019C22.5341 117.05 23.2016 116.253 24.2029 116.022V116C23.3469 115.736 22.814 115.08 22.814 114.261C22.814 113.088 23.8906 112.221 25.3495 112.221C26.8191 112.221 27.8796 113.082 27.8796 114.267C27.8796 115.074 27.3575 115.726 26.4961 116V116.022C27.5028 116.259 28.1703 117.055 28.1703 118.019C28.1703 119.322 26.9968 120.248 25.3495 120.248ZM25.3495 119.402C26.4208 119.402 27.1798 118.794 27.1798 117.949C27.1798 117.093 26.4208 116.49 25.3495 116.49C24.2836 116.49 23.5192 117.098 23.5192 117.949C23.5192 118.794 24.2836 119.402 25.3495 119.402ZM25.3495 115.64C26.27 115.64 26.9214 115.107 26.9214 114.353C26.9214 113.589 26.2754 113.056 25.3495 113.056C24.4236 113.056 23.7776 113.594 23.7776 114.353C23.7776 115.107 24.4236 115.64 25.3495 115.64ZM30.0599 119.015C29.7153 119.015 29.4462 118.746 29.4462 118.401C29.4462 118.057 29.7153 117.787 30.0599 117.787C30.4044 117.787 30.6736 118.057 30.6736 118.401C30.6736 118.746 30.4044 119.015 30.0599 119.015ZM30.0599 114.676C29.7153 114.676 29.4462 114.407 29.4462 114.062C29.4462 113.718 29.7153 113.449 30.0599 113.449C30.4044 113.449 30.6736 113.718 30.6736 114.062C30.6736 114.407 30.4044 114.676 30.0599 114.676ZM32.0409 114.595C32.0409 113.233 33.1606 112.221 34.6572 112.221C36.0945 112.221 37.085 113.201 37.085 114.38C37.085 115.236 36.692 115.876 35.2655 117.341L33.419 119.236V119.257H37.2142V120.118H32.0894V119.451L34.8241 116.598C35.8738 115.505 36.116 115.085 36.116 114.439C36.116 113.675 35.5454 113.066 34.6572 113.066C33.6989 113.066 32.9776 113.723 32.9776 114.595H32.0409ZM41.0525 120.248C39.2383 120.248 38.1886 118.686 38.1886 116.232C38.1886 113.798 39.2491 112.221 41.0525 112.221C42.8559 112.221 43.9056 113.788 43.9056 116.226C43.9056 118.681 42.8613 120.248 41.0525 120.248ZM41.0525 119.402C42.2637 119.402 42.9313 118.17 42.9313 116.232C42.9313 114.321 42.253 113.072 41.0525 113.072C39.852 113.072 39.163 114.331 39.163 116.226C39.163 118.164 39.8359 119.402 41.0525 119.402Z" fill="white"/>
<path opacity="0.6" d="M173.55 116.484H172.4V107.162H173.531L178.634 114.482H178.692V107.162H179.842V116.484H178.711L173.608 109.191H173.55V116.484ZM184.26 116.6C182.4 116.6 181.147 115.263 181.147 113.125C181.147 110.98 182.4 109.65 184.26 109.65C186.114 109.65 187.368 110.98 187.368 113.125C187.368 115.263 186.114 116.6 184.26 116.6ZM184.26 115.612C185.449 115.612 186.224 114.708 186.224 113.125C186.224 111.542 185.449 110.638 184.26 110.638C183.072 110.638 182.29 111.542 182.29 113.125C182.29 114.708 183.072 115.612 184.26 115.612ZM188.505 116.484V109.766H189.564V110.838H189.59C189.965 110.115 190.682 109.65 191.722 109.65C193.195 109.65 194.047 110.599 194.047 112.124V116.484H192.923V112.324C192.923 111.239 192.413 110.644 191.379 110.644C190.32 110.644 189.629 111.394 189.629 112.531V116.484H188.505ZM199.706 113.228H195.468V112.182H199.706V113.228ZM200.875 113.984H202.038C202.174 114.985 203.104 115.593 204.441 115.593C205.707 115.593 206.625 114.927 206.625 114.01C206.625 113.228 206.108 112.712 204.816 112.427L203.782 112.201C201.915 111.794 201.108 110.948 201.108 109.624C201.108 108.086 202.464 107.007 204.396 107.007C206.256 107.007 207.6 108.119 207.652 109.701H206.489C206.386 108.681 205.578 108.054 204.364 108.054C203.201 108.054 202.303 108.622 202.303 109.572C202.303 110.308 202.8 110.812 204.073 111.09L205.107 111.316C207.051 111.743 207.82 112.518 207.82 113.836C207.82 115.56 206.463 116.639 204.377 116.639C202.342 116.639 200.985 115.593 200.875 113.984ZM209.37 108.144H210.494V109.766H211.799V110.69H210.494V114.682C210.494 115.296 210.753 115.573 211.328 115.573C211.457 115.573 211.715 115.554 211.793 115.541V116.484C211.657 116.516 211.347 116.536 211.082 116.536C209.848 116.536 209.37 116.032 209.37 114.74V110.69H208.369V109.766H209.37V108.144ZM215.591 116.6C213.731 116.6 212.477 115.263 212.477 113.125C212.477 110.98 213.731 109.65 215.591 109.65C217.445 109.65 218.698 110.98 218.698 113.125C218.698 115.263 217.445 116.6 215.591 116.6ZM215.591 115.612C216.78 115.612 217.555 114.708 217.555 113.125C217.555 111.542 216.78 110.638 215.591 110.638C214.402 110.638 213.621 111.542 213.621 113.125C213.621 114.708 214.402 115.612 215.591 115.612ZM223.097 109.65C224.809 109.65 225.972 111.019 225.972 113.125C225.972 115.231 224.816 116.6 223.123 116.6C222.161 116.6 221.386 116.129 220.985 115.392H220.959V118.726H219.835V109.766H220.901V110.903H220.927C221.34 110.147 222.122 109.65 223.097 109.65ZM222.878 115.612C224.073 115.612 224.822 114.65 224.822 113.125C224.822 111.607 224.073 110.638 222.878 110.638C221.728 110.638 220.953 111.633 220.953 113.125C220.953 114.624 221.728 115.612 222.878 115.612Z" fill="white"/>
<path opacity="0.6" d="M289.041 192.703L293.26 184.441V184.415H288.24V183.381H294.409V184.46L290.262 192.703H289.041ZM298.486 192.703V183.381H299.61V187.057H299.636C300.01 186.308 300.747 185.868 301.767 185.868C303.24 185.868 304.132 186.863 304.132 188.362V192.703H303.008V188.569C303.008 187.503 302.471 186.863 301.418 186.863C300.301 186.863 299.61 187.625 299.61 188.788V192.703H298.486ZM308.343 192.819C306.483 192.819 305.23 191.482 305.23 189.344C305.23 187.199 306.483 185.868 308.343 185.868C310.197 185.868 311.451 187.199 311.451 189.344C311.451 191.482 310.197 192.819 308.343 192.819ZM308.343 191.831C309.532 191.831 310.307 190.926 310.307 189.344C310.307 187.761 309.532 186.857 308.343 186.857C307.155 186.857 306.373 187.761 306.373 189.344C306.373 190.926 307.155 191.831 308.343 191.831ZM318.104 185.985V192.703H317.039V191.611H317.013C316.612 192.386 315.915 192.819 314.881 192.819C313.415 192.819 312.555 191.87 312.555 190.345V185.985H313.679V190.145C313.679 191.236 314.19 191.824 315.23 191.824C316.321 191.824 316.98 191.075 316.98 189.932V185.985H318.104ZM319.564 192.703V185.985H320.624V187.083H320.65C320.869 186.34 321.489 185.868 322.278 185.868C322.471 185.868 322.639 185.901 322.73 185.914V187.005C322.639 186.973 322.4 186.941 322.129 186.941C321.257 186.941 320.688 187.567 320.688 188.517V192.703H319.564ZM323.531 187.839C323.531 186.689 324.545 185.868 325.998 185.868C327.471 185.868 328.453 186.734 328.498 187.923H327.426C327.342 187.218 326.825 186.786 325.998 186.786C325.178 186.786 324.635 187.193 324.635 187.78C324.635 188.246 324.978 188.562 325.727 188.743L326.793 189.001C328.15 189.331 328.641 189.861 328.641 190.823C328.641 191.992 327.536 192.819 326.037 192.819C324.461 192.819 323.479 192.025 323.35 190.765H324.474C324.61 191.534 325.126 191.902 326.037 191.902C326.948 191.902 327.51 191.514 327.51 190.907C327.51 190.423 327.245 190.145 326.476 189.957L325.411 189.699C324.144 189.395 323.531 188.808 323.531 187.839ZM334.926 192.703V184.615H334.9L332.433 186.333V185.164L334.913 183.381H336.05V192.703H334.926ZM341.677 192.858C339.5 192.858 338.24 190.985 338.24 188.039C338.24 185.119 339.513 183.226 341.677 183.226C343.841 183.226 345.1 185.106 345.1 188.032C345.1 190.978 343.847 192.858 341.677 192.858ZM341.677 191.844C343.13 191.844 343.931 190.364 343.931 188.039C343.931 185.746 343.117 184.247 341.677 184.247C340.236 184.247 339.409 185.758 339.409 188.032C339.409 190.358 340.217 191.844 341.677 191.844ZM349.125 192.703V185.985H350.184V187.057H350.21C350.527 186.346 351.212 185.868 352.116 185.868C353.033 185.868 353.712 186.333 354.002 187.147H354.028C354.403 186.346 355.191 185.868 356.134 185.868C357.465 185.868 358.324 186.734 358.324 188.065V192.703H357.2V188.323C357.2 187.406 356.69 186.863 355.805 186.863C354.913 186.863 354.286 187.522 354.286 188.433V192.703H353.162V188.2C353.162 187.393 352.62 186.863 351.786 186.863C350.895 186.863 350.249 187.561 350.249 188.491V192.703H349.125ZM359.816 192.703V185.985H360.94V192.703H359.816ZM360.378 184.789C359.991 184.789 359.674 184.473 359.674 184.085C359.674 183.691 359.991 183.381 360.378 183.381C360.772 183.381 361.082 183.691 361.082 184.085C361.082 184.473 360.772 184.789 360.378 184.789ZM362.458 192.703V185.985H363.518V187.057H363.544C363.918 186.333 364.635 185.868 365.675 185.868C367.148 185.868 368.001 186.818 368.001 188.342V192.703H366.877V188.543C366.877 187.457 366.366 186.863 365.333 186.863C364.273 186.863 363.582 187.612 363.582 188.749V192.703H362.458ZM369.319 187.839C369.319 186.689 370.333 185.868 371.786 185.868C373.259 185.868 374.241 186.734 374.286 187.923H373.214C373.13 187.218 372.613 186.786 371.786 186.786C370.966 186.786 370.423 187.193 370.423 187.78C370.423 188.246 370.766 188.562 371.515 188.743L372.581 189.001C373.938 189.331 374.428 189.861 374.428 190.823C374.428 191.992 373.324 192.819 371.825 192.819C370.249 192.819 369.267 192.025 369.138 190.765H370.262C370.397 191.534 370.914 191.902 371.825 191.902C372.736 191.902 373.298 191.514 373.298 190.907C373.298 190.423 373.033 190.145 372.264 189.957L371.199 189.699C369.932 189.395 369.319 188.808 369.319 187.839Z" fill="white"/>
<path opacity="0.6" d="M24.1167 175.166H22.9539V165.844H28.6128V166.89H24.1167V170.094H28.2446V171.128H24.1167V175.166ZM29.8273 175.166V165.844H30.9513V175.166H29.8273ZM32.5276 175.166V168.447H33.6516V175.166H32.5276ZM33.0896 167.252C32.702 167.252 32.3854 166.936 32.3854 166.548C32.3854 166.154 32.702 165.844 33.0896 165.844C33.4836 165.844 33.7937 166.154 33.7937 166.548C33.7937 166.936 33.4836 167.252 33.0896 167.252ZM37.9022 174.229C39.0715 174.229 39.8531 173.26 39.8531 171.781C39.8531 170.301 39.0715 169.319 37.9022 169.319C36.7459 169.319 35.9901 170.275 35.9901 171.781C35.9901 173.286 36.7459 174.229 37.9022 174.229ZM37.941 177.698C36.4616 177.698 35.2924 176.864 35.1051 175.721H36.2614C36.481 176.335 37.1464 176.742 37.9862 176.742C39.149 176.742 39.8531 176.07 39.8531 175.069V174.009H39.8273C39.4138 174.739 38.6193 175.217 37.6761 175.217C35.9642 175.217 34.8402 173.867 34.8402 171.781C34.8402 169.675 35.9642 168.331 37.7019 168.331C38.6516 168.331 39.4397 168.796 39.8854 169.578H39.9048V168.447H40.9771V175.03C40.9771 176.632 39.795 177.698 37.941 177.698ZM42.5017 175.166V165.844H43.6257V169.52H43.6515C44.0262 168.77 44.7626 168.331 45.7833 168.331C47.2562 168.331 48.1476 169.326 48.1476 170.824V175.166H47.0236V171.031C47.0236 169.965 46.4874 169.326 45.4345 169.326C44.3169 169.326 43.6257 170.088 43.6257 171.251V175.166H42.5017ZM49.937 166.826H51.0611V168.447H52.366V169.371H51.0611V173.363C51.0611 173.977 51.3195 174.255 51.8944 174.255C52.0236 174.255 52.282 174.235 52.3595 174.222V175.166C52.2238 175.198 51.9138 175.217 51.6489 175.217C50.4151 175.217 49.937 174.713 49.937 173.421V169.371H48.9357V168.447H49.937V166.826Z" fill="white"/>
<path d="M28.7291 191.759V192.805H22.9539V183.484H28.7291V184.53H24.1167V187.521H28.4901V188.555H24.1167V191.759H28.7291ZM31.4294 192.805H30.2666V183.484H31.4294V188.032H31.494L35.6089 183.484H37.0753L33.2446 187.612L37.4177 192.805H35.9319L32.4371 188.439L31.4294 189.55V192.805ZM41.0676 192.96C38.8906 192.96 37.6309 191.087 37.6309 188.141C37.6309 185.221 38.9035 183.329 41.0676 183.329C43.2316 183.329 44.4913 185.209 44.4913 188.135C44.4913 191.081 43.2381 192.96 41.0676 192.96ZM41.0676 191.946C42.521 191.946 43.3221 190.467 43.3221 188.141C43.3221 185.848 42.5081 184.349 41.0676 184.349C39.627 184.349 38.8001 185.861 38.8001 188.135C38.8001 190.46 39.6076 191.946 41.0676 191.946ZM46.1063 192.805L50.3246 184.543V184.517H45.3053V183.484H51.4745V184.563L47.3272 192.805H46.1063ZM54.7045 188.484V187.502H55.822C56.9331 187.502 57.7083 186.817 57.7083 185.887C57.7083 184.963 57.1269 184.336 55.9318 184.336C54.8337 184.336 54.0197 184.918 53.9486 185.926H52.8311C52.9603 184.343 54.1877 183.329 55.9318 183.329C57.7988 183.329 58.8776 184.401 58.8776 185.732C58.8776 186.888 58.0701 187.683 56.9008 187.928V187.954C58.2574 188.07 59.1812 188.917 59.1812 190.241C59.1812 191.843 57.7729 192.96 55.9448 192.96C54.0132 192.96 52.7277 191.882 52.6437 190.338H53.7613C53.8324 191.326 54.7045 191.953 55.9448 191.953C57.1721 191.953 57.9926 191.255 57.999 190.28C58.0055 189.13 57.1851 188.484 55.8737 188.484H54.7045Z" fill="white"/>
<path opacity="0.6" d="M103.966 175.321C101.395 175.321 99.7666 173.454 99.7666 170.501C99.7666 167.575 101.414 165.689 103.966 165.689C105.994 165.689 107.538 166.923 107.835 168.783H106.659C106.362 167.562 105.296 166.761 103.966 166.761C102.144 166.761 100.962 168.234 100.962 170.501C100.962 172.788 102.131 174.248 103.972 174.248C105.342 174.248 106.323 173.589 106.659 172.452H107.835C107.409 174.293 106.026 175.321 103.966 175.321ZM109.095 175.166V165.844H110.219V175.166H109.095ZM113.953 174.326C115.012 174.326 115.826 173.583 115.826 172.614V172.065L114.03 172.175C113.126 172.233 112.609 172.633 112.609 173.266C112.609 173.906 113.145 174.326 113.953 174.326ZM113.701 175.282C112.363 175.282 111.466 174.474 111.466 173.266C111.466 172.116 112.351 171.393 113.901 171.302L115.826 171.193V170.631C115.826 169.81 115.283 169.319 114.353 169.319C113.488 169.319 112.945 169.726 112.803 170.385H111.717C111.795 169.222 112.79 168.331 114.379 168.331C115.955 168.331 116.95 169.184 116.95 170.521V175.166H115.884V174.009H115.858C115.458 174.778 114.605 175.282 113.701 175.282ZM118.261 170.301C118.261 169.151 119.276 168.331 120.729 168.331C122.202 168.331 123.184 169.197 123.229 170.385H122.157C122.073 169.681 121.556 169.248 120.729 169.248C119.909 169.248 119.366 169.655 119.366 170.243C119.366 170.708 119.708 171.025 120.458 171.206L121.524 171.464C122.88 171.793 123.371 172.323 123.371 173.286C123.371 174.455 122.267 175.282 120.768 175.282C119.192 175.282 118.21 174.487 118.081 173.228H119.205C119.34 173.996 119.857 174.364 120.768 174.364C121.679 174.364 122.241 173.977 122.241 173.37C122.241 172.885 121.976 172.607 121.207 172.42L120.141 172.162C118.875 171.858 118.261 171.27 118.261 170.301ZM124.424 170.301C124.424 169.151 125.438 168.331 126.892 168.331C128.365 168.331 129.347 169.197 129.392 170.385H128.319C128.236 169.681 127.719 169.248 126.892 169.248C126.071 169.248 125.529 169.655 125.529 170.243C125.529 170.708 125.871 171.025 126.621 171.206L127.686 171.464C129.043 171.793 129.534 172.323 129.534 173.286C129.534 174.455 128.429 175.282 126.931 175.282C125.354 175.282 124.372 174.487 124.243 173.228H125.367C125.503 173.996 126.02 174.364 126.931 174.364C127.841 174.364 128.403 173.977 128.403 173.37C128.403 172.885 128.139 172.607 127.37 172.42L126.304 172.162C125.038 171.858 124.424 171.27 124.424 170.301Z" fill="white"/>
<path d="M107.99 188.949C107.99 191.468 106.523 192.96 104.036 192.96C101.433 192.96 99.7664 191.061 99.7664 188.096C99.7664 185.183 101.427 183.329 104.036 183.329C106.052 183.329 107.583 184.524 107.932 186.378H106.711C106.323 185.118 105.348 184.401 104.036 184.401C102.118 184.401 100.961 185.783 100.961 188.09C100.961 190.435 102.137 191.888 104.036 191.888C105.69 191.888 106.827 190.816 106.827 189.252V189.085H104.198V188.064H107.99V188.949ZM114.824 186.087V192.805H113.759V191.714H113.733C113.332 192.489 112.635 192.922 111.601 192.922C110.135 192.922 109.275 191.972 109.275 190.448V186.087H110.399V190.247C110.399 191.339 110.91 191.927 111.95 191.927C113.042 191.927 113.7 191.178 113.7 190.034V186.087H114.824ZM118.978 186.946C117.925 186.946 117.189 187.754 117.118 188.871H120.768C120.742 187.747 120.038 186.946 118.978 186.946ZM120.742 190.88H121.846C121.653 192.056 120.516 192.922 119.049 192.922C117.124 192.922 115.955 191.584 115.955 189.472C115.955 187.386 117.144 185.971 118.998 185.971C120.813 185.971 121.93 187.289 121.93 189.324V189.75H117.111V189.814C117.111 191.1 117.867 191.946 119.075 191.946C119.928 191.946 120.554 191.513 120.742 190.88ZM122.951 187.941C122.951 186.791 123.965 185.971 125.419 185.971C126.892 185.971 127.874 186.836 127.919 188.025H126.846C126.762 187.321 126.246 186.888 125.419 186.888C124.598 186.888 124.056 187.295 124.056 187.883C124.056 188.348 124.398 188.665 125.147 188.845L126.213 189.104C127.57 189.433 128.061 189.963 128.061 190.926C128.061 192.095 126.956 192.922 125.457 192.922C123.881 192.922 122.899 192.127 122.77 190.867H123.894C124.03 191.636 124.547 192.004 125.457 192.004C126.368 192.004 126.93 191.617 126.93 191.01C126.93 190.525 126.665 190.247 125.897 190.06L124.831 189.802C123.565 189.498 122.951 188.91 122.951 187.941ZM129.592 184.466H130.716V186.087H132.021V187.011H130.716V191.003C130.716 191.617 130.974 191.895 131.549 191.895C131.678 191.895 131.937 191.875 132.014 191.862V192.805C131.879 192.838 131.569 192.857 131.304 192.857C130.07 192.857 129.592 192.353 129.592 191.061V187.011H128.591V186.087H129.592V184.466Z" fill="white"/>
<path opacity="0.6" d="M182.811 175.166L181.874 172.498H178.166L177.23 175.166H176.009L179.445 165.844H180.595L184.032 175.166H182.811ZM180.001 167.259L178.509 171.509H181.532L180.04 167.259H180.001ZM184.982 175.166V168.447H186.106V175.166H184.982ZM185.544 167.252C185.156 167.252 184.839 166.936 184.839 166.548C184.839 166.154 185.156 165.844 185.544 165.844C185.938 165.844 186.248 166.154 186.248 166.548C186.248 166.936 185.938 167.252 185.544 167.252ZM187.624 175.166V168.447H188.683V169.545H188.709C188.929 168.803 189.549 168.331 190.337 168.331C190.531 168.331 190.699 168.363 190.789 168.376V169.468C190.699 169.436 190.46 169.403 190.188 169.403C189.316 169.403 188.748 170.03 188.748 170.979V175.166H187.624ZM196.965 170.65H195.867C195.705 169.92 195.137 169.319 194.148 169.319C192.985 169.319 192.197 170.282 192.197 171.806C192.197 173.37 192.998 174.293 194.161 174.293C195.078 174.293 195.679 173.809 195.873 173.001H196.978C196.803 174.339 195.679 175.282 194.155 175.282C192.294 175.282 191.054 173.97 191.054 171.806C191.054 169.688 192.288 168.331 194.142 168.331C195.821 168.331 196.823 169.442 196.965 170.65ZM198.011 175.166V168.447H199.071V169.545H199.097C199.316 168.803 199.936 168.331 200.724 168.331C200.918 168.331 201.086 168.363 201.177 168.376V169.468C201.086 169.436 200.847 169.403 200.576 169.403C199.704 169.403 199.135 170.03 199.135 170.979V175.166H198.011ZM204.181 174.326C205.24 174.326 206.054 173.583 206.054 172.614V172.065L204.258 172.175C203.354 172.233 202.837 172.633 202.837 173.266C202.837 173.906 203.373 174.326 204.181 174.326ZM203.929 175.282C202.591 175.282 201.693 174.474 201.693 173.266C201.693 172.116 202.578 171.393 204.129 171.302L206.054 171.193V170.631C206.054 169.81 205.511 169.319 204.581 169.319C203.715 169.319 203.173 169.726 203.031 170.385H201.945C202.023 169.222 203.018 168.331 204.607 168.331C206.183 168.331 207.178 169.184 207.178 170.521V175.166H206.112V174.009H206.086C205.686 174.778 204.833 175.282 203.929 175.282ZM208.967 175.166V169.371H208.031V168.447H208.967V167.698C208.967 166.406 209.568 165.792 210.808 165.792C211.06 165.792 211.332 165.818 211.493 165.844V166.755C211.357 166.735 211.17 166.716 210.983 166.716C210.376 166.716 210.085 167.039 210.085 167.704V168.447H211.461V169.371H210.091V175.166H208.967ZM212.985 166.826H214.109V168.447H215.414V169.371H214.109V173.363C214.109 173.977 214.368 174.255 214.943 174.255C215.072 174.255 215.33 174.235 215.408 174.222V175.166C215.272 175.198 214.962 175.217 214.697 175.217C213.463 175.217 212.985 174.713 212.985 173.421V169.371H211.984V168.447H212.985V166.826Z" fill="white"/>
<path d="M182.811 192.805L181.874 190.137H178.166L177.23 192.805H176.009L179.445 183.484H180.595L184.032 192.805H182.811ZM180.001 184.898L178.509 189.149H181.532L180.04 184.898H180.001ZM186.849 188.484V187.502H187.966C189.077 187.502 189.852 186.817 189.852 185.887C189.852 184.963 189.271 184.336 188.076 184.336C186.978 184.336 186.164 184.918 186.093 185.926H184.975C185.104 184.343 186.332 183.329 188.076 183.329C189.943 183.329 191.022 184.401 191.022 185.732C191.022 186.888 190.214 187.683 189.045 187.928V187.954C190.401 188.07 191.325 188.917 191.325 190.241C191.325 191.843 189.917 192.96 188.089 192.96C186.157 192.96 184.872 191.882 184.788 190.338H185.905C185.976 191.326 186.849 191.953 188.089 191.953C189.316 191.953 190.137 191.255 190.143 190.28C190.15 189.13 189.329 188.484 188.018 188.484H186.849ZM195.983 192.96C194.013 192.96 192.604 191.843 192.604 190.286C192.604 189.123 193.405 188.167 194.607 187.889V187.864C193.58 187.547 192.94 186.759 192.94 185.777C192.94 184.369 194.232 183.329 195.983 183.329C197.746 183.329 199.019 184.362 199.019 185.783C199.019 186.752 198.392 187.534 197.359 187.864V187.889C198.567 188.174 199.368 189.13 199.368 190.286C199.368 191.849 197.96 192.96 195.983 192.96ZM195.983 191.946C197.268 191.946 198.179 191.216 198.179 190.202C198.179 189.175 197.268 188.451 195.983 188.451C194.704 188.451 193.786 189.181 193.786 190.202C193.786 191.216 194.704 191.946 195.983 191.946ZM195.983 187.431C197.088 187.431 197.869 186.791 197.869 185.887C197.869 184.97 197.094 184.33 195.983 184.33C194.872 184.33 194.097 184.976 194.097 185.887C194.097 186.791 194.872 187.431 195.983 187.431ZM203.974 192.96C201.797 192.96 200.537 191.087 200.537 188.141C200.537 185.221 201.81 183.329 203.974 183.329C206.138 183.329 207.398 185.209 207.398 188.135C207.398 191.081 206.144 192.96 203.974 192.96ZM203.974 191.946C205.427 191.946 206.228 190.467 206.228 188.141C206.228 185.848 205.414 184.349 203.974 184.349C202.533 184.349 201.706 185.861 201.706 188.135C201.706 190.46 202.514 191.946 203.974 191.946Z" fill="white"/>
<path opacity="0.6" d="M350.201 25.7247H353.527C355.278 25.7247 356.512 26.9521 356.512 28.7157C356.512 30.4857 355.265 31.7195 353.514 31.7195H351.363V35.0464H350.201V25.7247ZM351.363 26.7583V30.6859H353.224C354.555 30.6859 355.317 29.956 355.317 28.7157C355.317 27.4818 354.561 26.7583 353.224 26.7583H351.363ZM359.309 34.2066C360.368 34.2066 361.182 33.4637 361.182 32.4947V31.9456L359.387 32.0554C358.482 32.1136 357.965 32.5141 357.965 33.1472C357.965 33.7867 358.502 34.2066 359.309 34.2066ZM359.057 35.1627C357.72 35.1627 356.822 34.3552 356.822 33.1472C356.822 31.9973 357.707 31.2738 359.257 31.1834L361.182 31.0735V30.5115C361.182 29.6911 360.64 29.2002 359.71 29.2002C358.844 29.2002 358.301 29.6071 358.159 30.266H357.074C357.151 29.1033 358.146 28.2118 359.735 28.2118C361.312 28.2118 362.306 29.0645 362.306 30.4017V35.0464H361.241V33.8901H361.215C360.814 34.6588 359.961 35.1627 359.057 35.1627ZM363.734 35.0464V28.3281H364.793V29.4263H364.819C365.039 28.6834 365.659 28.2118 366.447 28.2118C366.641 28.2118 366.809 28.2441 366.899 28.257V29.3487C366.809 29.3164 366.57 29.2841 366.299 29.2841C365.427 29.2841 364.858 29.9108 364.858 30.8604V35.0464H363.734ZM367.875 35.0464V28.3281H368.999V35.0464H367.875ZM368.437 27.133C368.049 27.133 367.733 26.8164 367.733 26.4289C367.733 26.0348 368.049 25.7247 368.437 25.7247C368.831 25.7247 369.141 26.0348 369.141 26.4289C369.141 26.8164 368.831 27.133 368.437 27.133ZM370.401 30.1821C370.401 29.0322 371.415 28.2118 372.868 28.2118C374.341 28.2118 375.323 29.0774 375.368 30.266H374.296C374.212 29.5619 373.695 29.1291 372.868 29.1291C372.048 29.1291 371.505 29.5361 371.505 30.1239C371.505 30.589 371.848 30.9056 372.597 31.0865L373.663 31.3449C375.02 31.6743 375.51 32.204 375.51 33.1665C375.51 34.3358 374.406 35.1627 372.907 35.1627C371.331 35.1627 370.349 34.3681 370.22 33.1084H371.344C371.479 33.8771 371.996 34.2454 372.907 34.2454C373.818 34.2454 374.38 33.8578 374.38 33.2505C374.38 32.766 374.115 32.4883 373.346 32.3009L372.281 32.0425C371.014 31.7389 370.401 31.1511 370.401 30.1821Z" fill="white"/>
<path d="M24.0543 71.1906H31.7265C38.1929 71.1906 42.0215 75.1699 42.0215 82.0282C42.0215 88.9016 38.208 92.9412 31.7265 92.9412H24.0543V71.1906ZM27.4307 74.0997V90.017H31.41C36.0224 90.017 38.5697 87.1983 38.5697 82.0584C38.5697 76.9335 36.0073 74.0997 31.41 74.0997H27.4307ZM41.9618 92.9412L49.1818 82.0433V81.9378L42.0372 71.1906H46.0617L51.4277 79.6014H51.5483L56.9746 71.1906H60.7882L53.4174 82.0584V82.1488L60.6525 92.9412H56.7033L51.2921 84.6509H51.1866L45.6999 92.9412H41.9618ZM71.5811 92.9412H62.8538V71.1906H71.5359C75.3946 71.1906 77.9269 73.331 77.9269 76.6169C77.9269 78.9231 76.2237 80.9882 74.0531 81.3499V81.4705C77.0075 81.8021 78.9971 83.8973 78.9971 86.7913C78.9971 90.6199 76.2086 92.9412 71.5811 92.9412ZM66.2302 73.949V80.4455H70.0135C72.9377 80.4455 74.5505 79.2397 74.5505 77.0842C74.5505 75.0644 73.1638 73.949 70.722 73.949H66.2302ZM66.2302 90.1828H70.8878C73.9325 90.1828 75.5454 88.9317 75.5454 86.5803C75.5454 84.2289 73.8873 83.023 70.6918 83.023H66.2302V90.1828Z" fill="white"/>
<path opacity="0.6" d="M350.969 108.118V106.503H347.066V105.626C347.728 104.399 348.638 102.983 350.473 100.35H351.905V105.653H353.004V106.503H351.905V108.118H350.969ZM348.024 105.631V105.653H350.969V101.158H350.953C349.483 103.257 348.638 104.555 348.024 105.631ZM359.603 100.221C361.805 100.221 363.183 101.772 363.183 104.237C363.183 106.703 361.805 108.248 359.603 108.248C357.402 108.248 356.024 106.703 356.024 104.237C356.024 101.772 357.402 100.221 359.603 100.221ZM359.603 101.115C358.015 101.115 357.019 102.321 357.019 104.237C357.019 106.148 358.015 107.354 359.603 107.354C361.192 107.354 362.187 106.148 362.187 104.237C362.187 102.321 361.192 101.115 359.603 101.115ZM368.895 104.356H367.98C367.845 103.747 367.372 103.247 366.548 103.247C365.579 103.247 364.922 104.049 364.922 105.319C364.922 106.622 365.59 107.392 366.559 107.392C367.323 107.392 367.824 106.988 367.985 106.315H368.906C368.76 107.429 367.824 108.215 366.553 108.215C365.003 108.215 363.969 107.123 363.969 105.319C363.969 103.553 364.997 102.423 366.542 102.423C367.942 102.423 368.777 103.349 368.895 104.356ZM370.069 101.169H371.005V102.52H372.093V103.29H371.005V106.616C371.005 107.128 371.221 107.359 371.7 107.359C371.807 107.359 372.023 107.343 372.087 107.332V108.118C371.974 108.145 371.716 108.161 371.495 108.161C370.467 108.161 370.069 107.742 370.069 106.665V103.29H369.234V102.52H370.069V101.169ZM373.735 109.663H372.954L373.476 106.923H374.472L373.735 109.663ZM350.473 120.118V113.379H350.452L348.395 114.811V113.836L350.463 112.35H351.41V120.118H350.473ZM354.963 116.517V115.699H355.894C356.82 115.699 357.466 115.128 357.466 114.353C357.466 113.583 356.982 113.061 355.986 113.061C355.071 113.061 354.392 113.545 354.333 114.385H353.402C353.51 113.066 354.532 112.221 355.986 112.221C357.542 112.221 358.441 113.115 358.441 114.224C358.441 115.187 357.768 115.849 356.793 116.054V116.076C357.924 116.172 358.694 116.878 358.694 117.981C358.694 119.316 357.52 120.248 355.997 120.248C354.387 120.248 353.316 119.349 353.246 118.062H354.177C354.236 118.886 354.963 119.408 355.997 119.408C357.019 119.408 357.703 118.826 357.709 118.014C357.714 117.055 357.03 116.517 355.937 116.517H354.963ZM360.675 119.015C360.33 119.015 360.061 118.746 360.061 118.401C360.061 118.057 360.33 117.787 360.675 117.787C361.019 117.787 361.288 118.057 361.288 118.401C361.288 118.746 361.019 119.015 360.675 119.015ZM360.675 114.676C360.33 114.676 360.061 114.407 360.061 114.062C360.061 113.718 360.33 113.449 360.675 113.449C361.019 113.449 361.288 113.718 361.288 114.062C361.288 114.407 361.019 114.676 360.675 114.676ZM364.287 116.517V115.699H365.218C366.144 115.699 366.79 115.128 366.79 114.353C366.79 113.583 366.306 113.061 365.31 113.061C364.395 113.061 363.716 113.545 363.657 114.385H362.726C362.833 113.066 363.856 112.221 365.31 112.221C366.865 112.221 367.764 113.115 367.764 114.224C367.764 115.187 367.092 115.849 366.117 116.054V116.076C367.248 116.172 368.018 116.878 368.018 117.981C368.018 119.316 366.844 120.248 365.32 120.248C363.711 120.248 362.64 119.349 362.57 118.062H363.501C363.56 118.886 364.287 119.408 365.32 119.408C366.343 119.408 367.027 118.826 367.032 118.014C367.038 117.055 366.354 116.517 365.261 116.517H364.287ZM371.947 120.248C370.133 120.248 369.083 118.686 369.083 116.232C369.083 113.798 370.144 112.221 371.947 112.221C373.751 112.221 374.8 113.788 374.8 116.226C374.8 118.681 373.756 120.248 371.947 120.248ZM371.947 119.402C373.159 119.402 373.826 118.17 373.826 116.232C373.826 114.321 373.148 113.072 371.947 113.072C370.747 113.072 370.058 114.331 370.058 116.226C370.058 118.164 370.731 119.402 371.947 119.402Z" fill="white"/>
<path d="M322.393 93.3029C316.288 93.3029 312.43 88.992 312.43 82.0584C312.43 75.1699 316.319 70.8289 322.393 70.8289C327.322 70.8289 331.045 73.8586 331.618 78.3956H328.272C327.669 75.607 325.347 73.7832 322.393 73.7832C318.444 73.7832 315.881 77.0239 315.881 82.0584C315.881 87.138 318.414 90.3486 322.408 90.3486C325.438 90.3486 327.593 88.796 328.272 86.1733H331.633C330.804 90.6651 327.397 93.3029 322.393 93.3029ZM334.678 71.1906H342.35C348.816 71.1906 352.645 75.1699 352.645 82.0282C352.645 88.9016 348.831 92.9412 342.35 92.9412H334.678V71.1906ZM338.054 74.0997V90.017H342.033C346.646 90.017 349.193 87.1983 349.193 82.0584C349.193 76.9335 346.631 74.0997 342.033 74.0997H338.054ZM374.606 83.8973C374.606 89.7909 371.125 93.3029 365.231 93.3029C359.006 93.3029 355.087 88.9468 355.087 81.9679C355.087 75.1096 358.991 70.8289 365.186 70.8289C370.024 70.8289 373.687 73.6928 374.441 78.0338H370.974C370.16 75.3357 368.035 73.7832 365.201 73.7832C361.041 73.7832 358.538 76.828 358.538 81.9378C358.538 87.138 361.116 90.3486 365.261 90.3486C368.788 90.3486 371.23 88.0876 371.275 84.7866V84.4098H365.653V81.6815H374.606V83.8973Z" fill="white"/>
<path d="M282.789 83.7859C210.454 44.4874 143.454 63.5049 114 80.4306" stroke="white" stroke-width="1.0161" stroke-dasharray="6.1 6.1"/>
<path d="M226 63.519C176.925 54.5883 135.354 68.1227 113.886 80.4965" stroke="white" stroke-width="1.0161"/>
<g clip-path="url(#clip0_2_2561)">
<path d="M224.29 64.4366L218.991 70.5723L217.362 70.285L220.604 63.7863L216.239 63.0164L214.438 65.3502L213.217 65.1347L214.698 61.4187L214.55 57.4154L215.771 57.6309L216.684 60.4434L221.049 61.2133L220.176 53.9888L221.805 54.2761L224.734 61.8635L229.17 62.6459C229.494 62.703 229.781 62.8934 229.969 63.175C230.156 63.4567 230.228 63.8067 230.169 64.1479C230.11 64.4891 229.925 64.7936 229.654 64.9945C229.384 65.1954 229.05 65.2761 228.726 65.219L224.29 64.4366Z" fill="white"/>
</g>
<path fill-rule="evenodd" clip-rule="evenodd" d="M109.146 93.7085C113.409 93.7085 116.864 90.0065 116.864 85.4398C116.864 80.8732 113.409 77.1711 109.146 77.1711C104.884 77.1711 101.429 80.8732 101.429 85.4398C101.429 90.0065 104.884 93.7085 109.146 93.7085ZM106.288 87.6317L111.081 84.9782L110.181 88.3386L111.058 88.6079L112.362 83.7351L107.54 82.2537L107.303 83.1396L110.629 84.1612L105.835 86.8148L106.288 87.6317Z" fill="white"/>
<path fill-rule="evenodd" clip-rule="evenodd" d="M278.401 90.2993C280.597 94.3033 285.607 95.7398 289.591 93.5077C293.575 91.2756 295.025 86.2202 292.829 82.2161C290.633 78.212 285.623 76.7755 281.639 79.0076C277.655 81.2398 276.205 86.2952 278.401 90.2993ZM281.999 84.1763L286.714 87.1226L283.328 87.9182L283.531 88.8126L288.441 87.6589L287.325 82.7395L286.433 82.9493L287.202 86.3418L282.487 83.3955L281.999 84.1763Z" fill="white"/>
<path d="M1.08386 143.321L396.879 143.321" stroke="white" stroke-opacity="0.1" stroke-width="1.10249"/>
<defs>
<clipPath id="clip0_2_2561">
<rect width="20.9474" height="19.8449" rx="9.92244" transform="matrix(-0.170149 0.985418 -0.984796 -0.173717 233.036 54.0186)" fill="white"/>
</clipPath>
</defs>
</svg>
